<mxfile host="app.diagrams.net" modified="2024-04-23T13:46:14.175Z" agent="Mozilla/5.0 (Windows NT 10.0; Win64; x64) AppleWebKit/537.36 (KHTML, like Gecko) Chrome/121.0.0.0 Safari/537.36 OPR/107.0.0.0 (Edition std-1)" etag="ldPySRuDzfGxIcwp2IHj" version="24.2.8" type="google">
  <diagram name="PÃ¡gina-1" id="fzoGhczKw04sIygBxcyR">
    <mxGraphModel grid="1" page="1" gridSize="10" guides="1" tooltips="1" connect="1" arrows="1" fold="1" pageScale="1" pageWidth="827" pageHeight="1169" math="0" shadow="0">
      <root>
        <mxCell id="0" />
        <mxCell id="1" parent="0" />
        <mxCell id="7NHr-llpy7jjcX457fw4-9" value="" style="rounded=1;whiteSpace=wrap;html=1;opacity=50;fillColor=#dae8fc;strokeColor=#6c8ebf;arcSize=17;" vertex="1" parent="1">
          <mxGeometry x="1290" y="120" width="220" height="270" as="geometry" />
        </mxCell>
        <mxCell id="rhrR1Bpbx5qNT1OcDc80-9" value="" style="rounded=1;whiteSpace=wrap;html=1;opacity=50;fillColor=#d5e8d4;strokeColor=#82b366;arcSize=17;" vertex="1" parent="1">
          <mxGeometry x="380" y="120" width="710" height="490" as="geometry" />
        </mxCell>
        <mxCell id="7NHr-llpy7jjcX457fw4-17" value="" style="rounded=1;whiteSpace=wrap;html=1;fillColor=#f8cecc;strokeColor=#b85450;arcSize=17;verticalAlign=top;" vertex="1" parent="1">
          <mxGeometry x="440" y="164.63" width="110" height="150" as="geometry" />
        </mxCell>
        <mxCell id="7NHr-llpy7jjcX457fw4-13" value="" style="rounded=1;whiteSpace=wrap;html=1;fillColor=#f8cecc;strokeColor=#b85450;arcSize=17;" vertex="1" parent="1">
          <mxGeometry x="935.62" y="176.46" width="110" height="410" as="geometry" />
        </mxCell>
        <mxCell id="ug3eGZvgMu5elCIInYjV-13" style="edgeStyle=none;curved=1;rounded=0;orthogonalLoop=1;jettySize=auto;html=1;fontSize=12;startSize=8;endSize=8;" edge="1" parent="1" source="rhrR1Bpbx5qNT1OcDc80-4" target="rhrR1Bpbx5qNT1OcDc80-14">
          <mxGeometry relative="1" as="geometry" />
        </mxCell>
        <mxCell id="ug3eGZvgMu5elCIInYjV-3" style="edgeStyle=none;curved=1;rounded=0;orthogonalLoop=1;jettySize=auto;html=1;fontSize=12;startSize=8;endSize=8;" edge="1" parent="1" source="rhrR1Bpbx5qNT1OcDc80-5" target="rhrR1Bpbx5qNT1OcDc80-14">
          <mxGeometry relative="1" as="geometry" />
        </mxCell>
        <mxCell id="rhrR1Bpbx5qNT1OcDc80-4" value="Windows 10&amp;nbsp;&lt;div&gt;192.168.3.100&lt;/div&gt;" style="shape=mxgraph.cisco.computers_and_peripherals.pc;html=1;pointerEvents=1;dashed=0;fillColor=#036897;strokeColor=#ffffff;strokeWidth=2;verticalLabelPosition=bottom;verticalAlign=top;align=center;outlineConnect=0;" vertex="1" parent="1">
          <mxGeometry x="958.62" y="181.46" width="64" height="55" as="geometry" />
        </mxCell>
        <mxCell id="rhrR1Bpbx5qNT1OcDc80-5" value="Host 3&lt;div&gt;192.168.3.102&lt;/div&gt;" style="shape=mxgraph.cisco.computers_and_peripherals.pc;html=1;pointerEvents=1;dashed=0;fillColor=#036897;strokeColor=#ffffff;strokeWidth=2;verticalLabelPosition=bottom;verticalAlign=top;align=center;outlineConnect=0;" vertex="1" parent="1">
          <mxGeometry x="958.62" y="383.96" width="64" height="60" as="geometry" />
        </mxCell>
        <mxCell id="ug3eGZvgMu5elCIInYjV-1" style="edgeStyle=none;curved=1;rounded=0;orthogonalLoop=1;jettySize=auto;html=1;fontSize=12;startSize=8;endSize=8;" edge="1" parent="1" source="rhrR1Bpbx5qNT1OcDc80-7" target="rhrR1Bpbx5qNT1OcDc80-14">
          <mxGeometry relative="1" as="geometry" />
        </mxCell>
        <mxCell id="rhrR1Bpbx5qNT1OcDc80-7" value="Host 2&lt;div&gt;192.168.3.101&lt;/div&gt;" style="shape=mxgraph.cisco.computers_and_peripherals.pc;html=1;pointerEvents=1;dashed=0;fillColor=#036897;strokeColor=#ffffff;strokeWidth=2;verticalLabelPosition=bottom;verticalAlign=top;align=center;outlineConnect=0;" vertex="1" parent="1">
          <mxGeometry x="958.62" y="282.71" width="64" height="55" as="geometry" />
        </mxCell>
        <mxCell id="ug3eGZvgMu5elCIInYjV-2" style="edgeStyle=none;curved=1;rounded=0;orthogonalLoop=1;jettySize=auto;html=1;fontSize=12;startSize=8;endSize=8;" edge="1" parent="1" source="rhrR1Bpbx5qNT1OcDc80-8" target="rhrR1Bpbx5qNT1OcDc80-14">
          <mxGeometry relative="1" as="geometry" />
        </mxCell>
        <mxCell id="rhrR1Bpbx5qNT1OcDc80-8" value="Host 4&lt;div&gt;192.168.3.103&lt;/div&gt;" style="shape=mxgraph.cisco.computers_and_peripherals.pc;html=1;pointerEvents=1;dashed=0;fillColor=#036897;strokeColor=#ffffff;strokeWidth=2;verticalLabelPosition=bottom;verticalAlign=top;align=center;outlineConnect=0;" vertex="1" parent="1">
          <mxGeometry x="956.12" y="486.46" width="69" height="60" as="geometry" />
        </mxCell>
        <mxCell id="7NHr-llpy7jjcX457fw4-10" value="" style="rounded=1;whiteSpace=wrap;html=1;opacity=50;fillColor=#e1d5e7;strokeColor=#9673a6;arcSize=17;" vertex="1" parent="1">
          <mxGeometry x="1312.5" y="176.46" width="155" height="173.54" as="geometry" />
        </mxCell>
        <mxCell id="rhrR1Bpbx5qNT1OcDc80-12" value="" style="image;aspect=fixed;perimeter=ellipsePerimeter;html=1;align=center;shadow=0;dashed=0;spacingTop=3;image=img/lib/active_directory/internet_cloud.svg;" vertex="1" parent="1">
          <mxGeometry x="682.3800000000001" y="-87" width="137.62" height="86.7" as="geometry" />
        </mxCell>
        <mxCell id="rhrR1Bpbx5qNT1OcDc80-14" value="" style="image;html=1;image=img/lib/clip_art/networking/Switch_128x128.png" vertex="1" parent="1">
          <mxGeometry x="820" y="320.25" width="80" height="80" as="geometry" />
        </mxCell>
        <mxCell id="rhrR1Bpbx5qNT1OcDc80-15" value="" style="image;html=1;image=img/lib/clip_art/networking/Router_Icon_128x128.png" vertex="1" parent="1">
          <mxGeometry x="700" y="240.25" width="80" height="80" as="geometry" />
        </mxCell>
        <mxCell id="rhrR1Bpbx5qNT1OcDc80-16" style="edgeStyle=none;curved=1;rounded=0;orthogonalLoop=1;jettySize=auto;html=1;exitX=0.83;exitY=0.5;exitDx=0;exitDy=0;exitPerimeter=0;fontSize=12;startSize=8;endSize=8;" edge="1" parent="1" source="rhrR1Bpbx5qNT1OcDc80-7" target="rhrR1Bpbx5qNT1OcDc80-7">
          <mxGeometry relative="1" as="geometry" />
        </mxCell>
        <mxCell id="rhrR1Bpbx5qNT1OcDc80-18" value="&lt;font style=&quot;font-size: 18px;&quot;&gt;VPN TUNNEL&lt;/font&gt;" style="shape=flexArrow;endArrow=classic;startArrow=classic;html=1;rounded=0;fontSize=12;startSize=8;endSize=5.1;curved=1;width=35;fillColor=#fad7ac;strokeColor=#b46504;opacity=50;entryX=0.091;entryY=0.444;entryDx=0;entryDy=0;entryPerimeter=0;" edge="1" parent="1" target="7NHr-llpy7jjcX457fw4-9">
          <mxGeometry width="100" height="100" relative="1" as="geometry">
            <mxPoint x="1060" y="240" as="sourcePoint" />
            <mxPoint x="1280" y="240" as="targetPoint" />
          </mxGeometry>
        </mxCell>
        <mxCell id="7NHr-llpy7jjcX457fw4-33" value="" style="image;html=1;image=img/lib/clip_art/computers/Server_Rack_128x128.png" vertex="1" parent="1">
          <mxGeometry x="455" y="184.63" width="80" height="80" as="geometry" />
        </mxCell>
        <mxCell id="NkSncmP2mZNDaSU2Dcu--7" value="" style="endArrow=classic;html=1;rounded=0;exitX=0.909;exitY=0.412;exitDx=0;exitDy=0;exitPerimeter=0;entryX=-0.023;entryY=0.397;entryDx=0;entryDy=0;entryPerimeter=0;" edge="1" parent="1" source="7NHr-llpy7jjcX457fw4-17" target="rhrR1Bpbx5qNT1OcDc80-15">
          <mxGeometry width="50" height="50" relative="1" as="geometry">
            <mxPoint x="200" y="178.17" as="sourcePoint" />
            <mxPoint x="680" y="290" as="targetPoint" />
          </mxGeometry>
        </mxCell>
        <mxCell id="ug3eGZvgMu5elCIInYjV-15" value="" style="verticalLabelPosition=bottom;verticalAlign=top;html=1;shape=mxgraph.basic.flash;fillColor=#fa6800;fontColor=#000000;strokeColor=#C73500;" vertex="1" parent="1">
          <mxGeometry x="717.8499999999999" y="26.46" width="66.69" height="110" as="geometry" />
        </mxCell>
        <mxCell id="7NHr-llpy7jjcX457fw4-3" value="&lt;font style=&quot;font-size: 14px;&quot;&gt;PfSense&lt;/font&gt;&lt;div style=&quot;font-size: 14px;&quot;&gt;&lt;font style=&quot;font-size: 14px;&quot;&gt;WAN: 10.0.2.4&lt;/font&gt;&lt;/div&gt;&lt;div style=&quot;font-size: 14px;&quot;&gt;&lt;div&gt;LAN 1:192.168.1.1&lt;/div&gt;&lt;div&gt;LAN 2:192.168.2.1&lt;/div&gt;&lt;div&gt;LAN 3:192.168.3.1&lt;/div&gt;&lt;div&gt;&lt;br&gt;&lt;/div&gt;&lt;/div&gt;" style="text;strokeColor=none;align=center;fillColor=none;html=1;verticalAlign=middle;whiteSpace=wrap;rounded=0;" vertex="1" parent="1">
          <mxGeometry x="672.12" y="190" width="141.19" height="30" as="geometry" />
        </mxCell>
        <mxCell id="7NHr-llpy7jjcX457fw4-4" value="&lt;font style=&quot;font-size: 16px;&quot;&gt;INTERNET&lt;/font&gt;" style="text;strokeColor=none;align=center;fillColor=none;html=1;verticalAlign=middle;whiteSpace=wrap;rounded=0;" vertex="1" parent="1">
          <mxGeometry x="721.19" y="-117" width="60" height="30" as="geometry" />
        </mxCell>
        <mxCell id="7NHr-llpy7jjcX457fw4-11" value="&lt;font style=&quot;font-size: 16px;&quot;&gt;AWS VPC&lt;/font&gt;&lt;div style=&quot;font-size: 16px;&quot;&gt;&lt;font style=&quot;font-size: 16px;&quot;&gt;10.1.0.0/16&lt;/font&gt;&lt;/div&gt;" style="text;strokeColor=none;align=center;fillColor=none;html=1;verticalAlign=middle;whiteSpace=wrap;rounded=0;" vertex="1" parent="1">
          <mxGeometry x="1424.9999999999998" y="106.46" width="60" height="30" as="geometry" />
        </mxCell>
        <mxCell id="7NHr-llpy7jjcX457fw4-12" value="&lt;span style=&quot;font-size: 16px;&quot;&gt;Subnet 1&lt;/span&gt;&lt;div&gt;&lt;span style=&quot;font-size: 16px;&quot;&gt;10.1.1.0/24&lt;/span&gt;&lt;/div&gt;" style="text;strokeColor=none;align=center;fillColor=none;html=1;verticalAlign=middle;whiteSpace=wrap;rounded=0;" vertex="1" parent="1">
          <mxGeometry x="1330" y="146.46" width="80" height="30" as="geometry" />
        </mxCell>
        <mxCell id="7NHr-llpy7jjcX457fw4-14" value="&lt;font style=&quot;font-size: 14px;&quot;&gt;Switch&lt;/font&gt;" style="text;strokeColor=none;align=center;fillColor=none;html=1;verticalAlign=middle;whiteSpace=wrap;rounded=0;" vertex="1" parent="1">
          <mxGeometry x="830" y="306.25" width="60" height="30" as="geometry" />
        </mxCell>
        <mxCell id="7NHr-llpy7jjcX457fw4-16" value="" style="rounded=1;whiteSpace=wrap;html=1;fillColor=#f8cecc;strokeColor=#b85450;arcSize=17;" vertex="1" parent="1">
          <mxGeometry x="570" y="366.25" width="120" height="122.5" as="geometry" />
        </mxCell>
        <mxCell id="7NHr-llpy7jjcX457fw4-18" value="&lt;font style=&quot;font-size: 14px;&quot;&gt;Subnet 1&lt;/font&gt;&lt;div style=&quot;font-size: 14px;&quot;&gt;&lt;font style=&quot;font-size: 14px;&quot;&gt;192.168.1.0/24&lt;/font&gt;&lt;/div&gt;" style="text;strokeColor=none;align=center;fillColor=none;html=1;verticalAlign=middle;whiteSpace=wrap;rounded=0;" vertex="1" parent="1">
          <mxGeometry x="445" y="136.46" width="100" height="30" as="geometry" />
        </mxCell>
        <mxCell id="7NHr-llpy7jjcX457fw4-19" value="&lt;div style=&quot;font-size: 22px;&quot;&gt;&lt;font style=&quot;font-size: 22px;&quot;&gt;Subnet 1 = Domain Resources&lt;/font&gt;&lt;/div&gt;&lt;div style=&quot;font-size: 22px;&quot;&gt;&lt;font style=&quot;font-size: 22px;&quot;&gt;Subnet 2 = Security Cameras&lt;/font&gt;&lt;/div&gt;&lt;div style=&quot;font-size: 22px;&quot;&gt;&lt;font style=&quot;font-size: 22px;&quot;&gt;Subnet 3 = Work PCs&lt;/font&gt;&lt;/div&gt;" style="text;strokeColor=none;align=left;fillColor=none;html=1;verticalAlign=middle;whiteSpace=wrap;rounded=0;" vertex="1" parent="1">
          <mxGeometry x="400" width="310" height="130" as="geometry" />
        </mxCell>
        <mxCell id="7NHr-llpy7jjcX457fw4-24" value="&lt;font color=&quot;#000000&quot;&gt;Security Cameras&lt;/font&gt;&lt;div&gt;&lt;font color=&quot;#000000&quot;&gt;192.168.2.102&lt;/font&gt;&lt;/div&gt;" style="fontColor=#0066CC;verticalAlign=top;verticalLabelPosition=bottom;labelPosition=center;align=center;html=1;outlineConnect=0;fillColor=#CCCCCC;strokeColor=#6881B3;gradientColor=none;gradientDirection=north;strokeWidth=2;shape=mxgraph.networks.security_camera;" vertex="1" parent="1">
          <mxGeometry x="600" y="386.25" width="70" height="50" as="geometry" />
        </mxCell>
        <mxCell id="7NHr-llpy7jjcX457fw4-26" value="&lt;font style=&quot;font-size: 14px;&quot;&gt;Subnet 3&lt;/font&gt;&lt;div style=&quot;font-size: 14px;&quot;&gt;&lt;font style=&quot;font-size: 14px;&quot;&gt;192.168.3.0/24&lt;/font&gt;&lt;/div&gt;" style="text;strokeColor=none;align=center;fillColor=none;html=1;verticalAlign=middle;whiteSpace=wrap;rounded=0;" vertex="1" parent="1">
          <mxGeometry x="960.62" y="146.46" width="60" height="30" as="geometry" />
        </mxCell>
        <mxCell id="7NHr-llpy7jjcX457fw4-27" style="edgeStyle=orthogonalEdgeStyle;rounded=0;orthogonalLoop=1;jettySize=auto;html=1;exitX=0.5;exitY=1;exitDx=0;exitDy=0;exitPerimeter=0;" edge="1" parent="1" source="rhrR1Bpbx5qNT1OcDc80-4" target="rhrR1Bpbx5qNT1OcDc80-4">
          <mxGeometry relative="1" as="geometry" />
        </mxCell>
        <mxCell id="7NHr-llpy7jjcX457fw4-29" value="&lt;font style=&quot;font-size: 15px;&quot;&gt;Subnet 2&lt;/font&gt;&lt;div style=&quot;font-size: 15px;&quot;&gt;&lt;font style=&quot;font-size: 15px;&quot;&gt;192.168.2.0/24&lt;/font&gt;&lt;/div&gt;" style="text;strokeColor=none;align=center;fillColor=none;html=1;verticalAlign=middle;whiteSpace=wrap;rounded=0;" vertex="1" parent="1">
          <mxGeometry x="610" y="336.25" width="60" height="30" as="geometry" />
        </mxCell>
        <mxCell id="7NHr-llpy7jjcX457fw4-35" value="&lt;div&gt;Windows Server 192.168.1.10&lt;/div&gt;" style="text;strokeColor=none;align=center;fillColor=none;html=1;verticalAlign=middle;whiteSpace=wrap;rounded=0;" vertex="1" parent="1">
          <mxGeometry x="445" y="275" width="105" height="30" as="geometry" />
        </mxCell>
        <mxCell id="NkSncmP2mZNDaSU2Dcu--4" value="&lt;font style=&quot;font-size: 20px;&quot;&gt;DOMAIN&lt;/font&gt;&lt;div&gt;&lt;font style=&quot;font-size: 20px;&quot;&gt;NET2Grid.com&lt;/font&gt;&lt;/div&gt;" style="text;strokeColor=none;align=center;fillColor=none;html=1;verticalAlign=middle;whiteSpace=wrap;rounded=0;" vertex="1" parent="1">
          <mxGeometry x="880" y="100" width="60" height="30" as="geometry" />
        </mxCell>
        <mxCell id="NkSncmP2mZNDaSU2Dcu--5" value="" style="endArrow=classic;html=1;rounded=0;exitX=0.917;exitY=0.194;exitDx=0;exitDy=0;exitPerimeter=0;entryX=0.14;entryY=0.922;entryDx=0;entryDy=0;entryPerimeter=0;" edge="1" parent="1" source="7NHr-llpy7jjcX457fw4-16" target="rhrR1Bpbx5qNT1OcDc80-15">
          <mxGeometry width="50" height="50" relative="1" as="geometry">
            <mxPoint x="618.8199999999999" y="407.5" as="sourcePoint" />
            <mxPoint x="720" y="360" as="targetPoint" />
          </mxGeometry>
        </mxCell>
        <mxCell id="ug3eGZvgMu5elCIInYjV-11" value="" style="image;aspect=fixed;perimeter=ellipsePerimeter;html=1;align=center;shadow=0;dashed=0;spacingTop=3;image=img/lib/active_directory/domain_controller.svg;" vertex="1" parent="1">
          <mxGeometry x="507" y="174.63" width="28" height="40" as="geometry" />
        </mxCell>
        <mxCell id="ug3eGZvgMu5elCIInYjV-12" value="" style="image;sketch=0;aspect=fixed;html=1;points=[];align=center;fontSize=12;image=img/lib/mscae/DNS.svg;" vertex="1" parent="1">
          <mxGeometry x="508.40999999999997" y="235.08000000000004" width="26.59" height="26.59" as="geometry" />
        </mxCell>
        <mxCell id="D4GTptrSc-4K9LltRV3c-1" style="edgeStyle=none;curved=1;rounded=0;orthogonalLoop=1;jettySize=auto;html=1;fontSize=12;startSize=8;endSize=8;exitX=-0.1;exitY=1.092;exitDx=0;exitDy=0;exitPerimeter=0;entryX=1.027;entryY=0.672;entryDx=0;entryDy=0;entryPerimeter=0;" edge="1" parent="1" source="7NHr-llpy7jjcX457fw4-14" target="rhrR1Bpbx5qNT1OcDc80-15">
          <mxGeometry relative="1" as="geometry">
            <mxPoint x="809" y="349.63" as="sourcePoint" />
            <mxPoint x="750" y="314.63" as="targetPoint" />
          </mxGeometry>
        </mxCell>
        <mxCell id="mS6p2IR8vEm0-nFutvcU-4" value="&lt;font color=&quot;#000000&quot;&gt;NET2Grid AWS Instance&lt;/font&gt;&lt;div&gt;&lt;font color=&quot;#000000&quot;&gt;10.1.1.28&lt;/font&gt;&lt;/div&gt;" style="fontColor=#0066CC;verticalAlign=top;verticalLabelPosition=bottom;labelPosition=center;align=center;html=1;outlineConnect=0;fillColor=#CCCCCC;strokeColor=#6881B3;gradientColor=none;gradientDirection=north;strokeWidth=2;shape=mxgraph.networks.pc;" vertex="1" parent="1">
          <mxGeometry x="1355" y="206.67" width="70" height="55" as="geometry" />
        </mxCell>
      </root>
    </mxGraphModel>
  </diagram>
</mxfile>
